<?xml version="1.0" encoding="UTF-8"?>
<svg id="Layer_1" data-name="Layer 1" xmlns="http://www.w3.org/2000/svg" version="1.1" viewBox="0 0 50 50">
  <defs>
    <style>
      .cls-1 {
        fill: #ffeccc;
      }

      .cls-1, .cls-2, .cls-3, .cls-4, .cls-5, .cls-6, .cls-7, .cls-8, .cls-9, .cls-10, .cls-11, .cls-12, .cls-13, .cls-14, .cls-15 {
        stroke-width: 0px;
      }

      .cls-2 {
        fill: #d22629;
      }

      .cls-3 {
        fill: #f7d6ae;
      }

      .cls-4 {
        fill: #851d24;
      }

      .cls-16 {
        isolation: isolate;
      }

      .cls-5 {
        fill: #a4cd39;
      }

      .cls-6 {
        fill: #e53525;
      }

      .cls-7 {
        fill: #faaa49;
      }

      .cls-8 {
        fill: #f0812e;
      }

      .cls-9 {
        fill: #fcb725;
      }

      .cls-10 {
        fill: #fcda44;
      }

      .cls-11 {
        fill: #ffcb69;
      }

      .cls-12 {
        fill: #85b040;
      }

      .cls-13 {
        fill: #e33e26;
      }

      .cls-14 {
        fill: #f1582b;
      }

      .cls-15 {
        fill: #c35d4a;
      }
    </style>
  </defs>
  <g class="cls-16">
    <path class="cls-8" d="M3.53,30.61c0,.39,0,4.72,0,5.1.58,8.93,18.02,14.57,31.49,9.43.16-.06.34-.14.49-.2,6.42-2.61,8.61-6.54,8.61-9.58v-4.64c-7.53-.91-14.03-1.56-19.18-2.03,0,0-19.98-1.81-21.31,1.6-.06.15-.11.31-.11.31h0Z"/>
    <path class="cls-7" d="M38.14,22.35c7.96,4.59,8,12.04.09,16.63-7.9,4.59-20.76,4.59-28.71,0-7.96-4.59-8-12.04-.09-16.63,7.9-4.59,20.76-4.59,28.71,0Z"/>
  </g>
  <g class="cls-16">
    <path class="cls-4" d="M3.53,27.47c0,.39,0,2.18,0,2.56.58,8.93,18.02,14.57,31.49,9.43.16-.06.34-.14.49-.2,6.42-2.61,8.61-6.54,8.61-9.58v-2.1c-7.53-.91-14.03-1.56-19.18-2.03,0,0-19.98-1.81-21.31,1.6-.06.15-.11.31-.11.31h0Z"/>
    <path class="cls-15" d="M38.14,19.21c7.96,4.59,8,12.04.09,16.63-7.9,4.59-20.76,4.59-28.71,0-7.96-4.59-8-12.04-.09-16.63,7.9-4.59,20.76-4.59,28.71,0Z"/>
  </g>
  <g class="cls-16">
    <path class="cls-4" d="M3.53,24.94c0,.39,0,2.18,0,2.56.58,8.93,18.02,14.57,31.49,9.43.16-.06.34-.14.49-.2,6.42-2.61,8.61-6.54,8.61-9.58v-2.1c-7.53-.91-14.03-1.56-19.18-2.03,0,0-19.98-1.81-21.31,1.6-.06.15-.11.31-.11.31h0Z"/>
    <path class="cls-15" d="M38.14,16.68c7.96,4.59,8,12.04.09,16.63-7.9,4.59-20.76,4.59-28.71,0-7.96-4.59-8-12.04-.09-16.63,7.9-4.59,20.76-4.59,28.71,0Z"/>
  </g>
  <path class="cls-12" d="M48.14,27.54c-.12,1.15-1.14,1.81-1.14,1.81,0,0-1.33-.79-2.85-.66h-.02c-.36.03-.72.11-1.09.26-1.93.81-4.15.81-4.15.81l-1.12-5.98c9.25-16.34,3.35-4.34,8.11-.2.76.66,1.26,1.33,1.57,1.87.1.17.19.33.25.47.28.57.49,1.03.43,1.63h0Z"/>
  <path class="cls-5" d="M48.14,27.54c-.12,1.15-1.14,1.81-1.14,1.81,0,0-1.33-.79-2.85-.66l2.34-.55.2-1.41.76-1.28c.1.17.19.33.25.47.28.57.49,1.03.43,1.63h0Z"/>
  <g>
    <g class="cls-16">
      <path class="cls-2" d="M29.94,33.87c-.8-.32-1.35-.52-2.25-1.28-.86-.72-1.53-1.72-1.57-2.84.05,1.37-.02,1.91.31,2.71,1.71,4.11,10.71,5.25,15.71,2.08,1.4-.88,2.61-2.23,2.55-3.87l-.05-1.58c.15,4.33-8.39,7.3-14.7,4.77h0Z"/>
      <path class="cls-6" d="M41.77,25.39c3.71,1.96,3.85,5.35.32,7.58-3.52,2.23-9.38,2.45-13.09.5-3.71-1.96-3.85-5.35-.33-7.58,3.52-2.23,9.38-2.45,13.1-.49h0Z"/>
      <path class="cls-14" d="M40.87,25.96c3.18,1.68,3.3,4.6.28,6.51-3.03,1.92-8.06,2.11-11.24.43-3.19-1.68-3.31-4.6-.28-6.51s8.06-2.11,11.25-.42h0Z"/>
    </g>
    <path class="cls-13" d="M40.54,32.15c-2.76,1.72-7.22,1.88-10.06.38-2.85-1.51-2.96-4.12-.26-5.83,0-.01.02-.01.03-.01,2.37-1.58,7.01-1.96,10.04-.37,2.64,1.39,3.15,3.89.25,5.83Z"/>
    <path class="cls-14" d="M40.9,31.91c-.25.18-.51.35-.78.48-.86-.65-.89-.96-1.33-.34-.51.73-1.17.72-1.23.03-.06-.69.09-.79-.29-1.1s-.86-.6-1.35-.23c-.5.37-1.36.23-1.3-.67.06-.89.5-1.02-.52-1.33-1.03-.32-1.85-.51-2.07-.27-.23.23-1.2.61-1.51-.14-.31-.74.09-1.26-.19-1.6l-.06-.06c.25-.16.5-.3.78-.43.26.22.36.31.57.31.71.01,1.27-.81,1.51-.63.05.04.07.1.07.15,0,.23-.66.35-.72.69-.03.18.1.33.14.36.18.21.43.17.81.25.7.14,1.33-.73,1.62-.84.03-.01.08,0,.13.02.35.21-.33,1.21.26,2.12.59.9,1.49.96,1.82.41.33-.56.67.11.74.8.06.68.91,1.18,1.44.74s1.09-.76.74.16c-.32.84.35.93.74,1.1l-.02.02Z"/>
    <path class="cls-14" d="M28.91,28.85c.75-.39.95-.36.69.01s-.69-.01-.69-.01Z"/>
    <path class="cls-14" d="M29.17,30.45c.47-.34,1.46-.86,1-.16s-1,.16-1,.16Z"/>
    <path class="cls-14" d="M30.35,31.74c.66-.71,1.14-.73,1.15-.53,0,.2-.86.8-.86.8,0,0-.29-.27-.29-.27Z"/>
    <path class="cls-14" d="M32.76,31.61s-.88.27-.78.71c.1.44.78-.71.78-.71Z"/>
    <path class="cls-14" d="M33.9,31.88c-.11.17-.46.74-.13.85s.13-.85.13-.85Z"/>
    <path class="cls-14" d="M35.12,32s-.39.38.19.68c.58.3-.19-.68-.19-.68Z"/>
    <path class="cls-14" d="M36.57,32.07s-.5.7.03.72c.52.02-.03-.72-.03-.72Z"/>
    <path class="cls-14" d="M41.89,29.85c-.8.23-.98.68-.54.58s.54-.58.54-.58Z"/>
    <path class="cls-14" d="M41.23,28.34c-.56.06-.65.95-.17.73s.67-.43.67-.43l-.5-.3Z"/>
    <path class="cls-14" d="M39.69,27.15c-.72.15-.81,1-.13.73s1.07-.4,1.11-.57c.03-.16-.97-.16-.97-.16h0Z"/>
    <path class="cls-14" d="M38.5,26.51c-.51.34-.65.91-.41.78s.74-.63.74-.79-.32.01-.32.01h-.01Z"/>
    <path class="cls-14" d="M37.14,25.8c-.16.05-.85,1.08-.36,1.1.48.02.36-1.1.36-1.1Z"/>
    <path class="cls-14" d="M35.65,25.77s-.26.61.14.48c.4-.14-.14-.48-.14-.48Z"/>
  </g>
  <g>
    <path class="cls-12" d="M29.67,35.13c.08,1.1.9,1.42.71,2.03-.32,1.03-3.12,1.36-5.58.92-3.4-.62-3.49-2.24-5.73-2.27-.92-.02-1.73.24-2.46.62-2.06,1.05-3.49,3.02-4.69,2.36-1-.54-.32-1.91-1.82-3.45-1.04-1.05-1.78-.84-2.74-2.03-.04-.05-.12-.15-.24-.31-.39-.56-1.07-1.68-.67-2.49.48-.96,2.24-.96,3.54-1.03.65-.03,1.18.08,2.09.15,1.97.15,2.54-2.13,5.85-2.72,1.14-.2,2.78.19,6.11,1.22,4.19,1.29,7.05,2.21,7.15,3.65.06,1.14-1.64,1.72-1.52,3.35Z"/>
    <path class="cls-5" d="M29.17,32.09l-.16,1.38-.14,2.78s-1.62.3-2.84,0-2.23.41-2.23.41l-2.74-1.72,4.26-1.82,3.85-1.01v-.02Z"/>
    <path class="cls-5" d="M16.62,36.42c-2.06,1.05-3.49,3.02-4.69,2.36-1-.54-.32-1.91-1.82-3.45-1.04-1.05-1.78-.84-2.74-2.03-.04-.05-.12-.15-.24-.31,1.01.31,2.39.32,2.39.32l2.31,2.42,1.31.71s1.43-1.32,1.73-1.43c.24-.08,1.32.97,1.74,1.39v.02Z"/>
  </g>
  <g>
    <g class="cls-16">
      <path class="cls-2" d="M4.8,28.4c-.8-.32-1.35-.52-2.25-1.28-.86-.72-1.53-1.72-1.57-2.84.05,1.37-.02,1.91.31,2.71,1.71,4.11,10.71,5.25,15.71,2.08,1.4-.88,2.61-2.23,2.55-3.87l-.05-1.58c.15,4.33-8.39,7.3-14.7,4.77h0Z"/>
      <path class="cls-6" d="M16.63,19.93c3.71,1.96,3.85,5.35.32,7.58-3.52,2.23-9.38,2.45-13.09.5-3.71-1.97-3.86-5.36-.33-7.59,3.52-2.23,9.38-2.45,13.1-.49Z"/>
      <path class="cls-14" d="M15.73,20.5c3.18,1.68,3.3,4.6.28,6.51-3.03,1.92-8.06,2.11-11.24.43-3.19-1.68-3.31-4.6-.28-6.51,3.03-1.91,8.06-2.11,11.25-.42h-.01Z"/>
    </g>
    <path class="cls-13" d="M15.4,26.69c-2.76,1.72-7.22,1.88-10.06.38-2.85-1.51-2.96-4.12-.26-5.83,0-.01.02-.01.03-.01,2.37-1.58,7.01-1.96,10.04-.37,2.64,1.39,3.15,3.89.25,5.83Z"/>
    <path class="cls-14" d="M15.76,26.44c-.25.18-.51.35-.78.48-.86-.65-.89-.96-1.33-.34-.51.73-1.17.72-1.23.03-.06-.69.09-.79-.29-1.1s-.86-.6-1.35-.23c-.5.37-1.36.23-1.3-.67.06-.89.5-1.02-.52-1.33-1.03-.32-1.85-.51-2.07-.27-.23.23-1.2.61-1.51-.14-.31-.74.09-1.26-.19-1.6-.02-.02-.04-.04-.06-.06.25-.16.5-.3.78-.43.26.22.36.31.57.31.71.01,1.27-.81,1.51-.63.05.04.07.1.07.15-.01.23-.66.35-.72.69-.03.18.1.33.14.36.18.21.43.17.81.25.7.14,1.33-.73,1.62-.84.03-.01.08,0,.13.02.35.21-.33,1.21.26,2.12.59.9,1.49.96,1.82.41.33-.56.67.11.74.8.06.68.91,1.18,1.44.74s1.09-.76.74.16c-.32.84.35.93.74,1.1l-.02.02Z"/>
    <path class="cls-14" d="M3.77,23.38c.75-.39.95-.36.69.01s-.69-.01-.69-.01Z"/>
    <path class="cls-14" d="M4.03,24.99c.47-.34,1.46-.86,1-.16s-1,.16-1,.16Z"/>
    <path class="cls-14" d="M5.21,26.27c.66-.71,1.14-.73,1.15-.53,0,.2-.86.8-.86.8,0,0-.29-.27-.29-.27Z"/>
    <path class="cls-14" d="M7.62,26.14s-.88.27-.78.71c.1.44.78-.71.78-.71Z"/>
    <path class="cls-14" d="M8.76,26.42c-.11.17-.46.74-.13.85s.13-.85.13-.85Z"/>
    <path class="cls-14" d="M9.97,26.54s-.39.38.19.68c.58.3-.19-.68-.19-.68Z"/>
    <path class="cls-14" d="M11.43,26.6s-.5.7.03.72c.52.02-.03-.72-.03-.72Z"/>
    <path class="cls-14" d="M16.75,24.39c-.8.23-.98.68-.54.58.44-.1.54-.58.54-.58Z"/>
    <path class="cls-14" d="M16.09,22.88c-.56.06-.65.95-.17.73.48-.22.67-.43.67-.43l-.5-.3Z"/>
    <path class="cls-14" d="M14.55,21.69c-.72.15-.81,1-.13.73s1.07-.4,1.11-.57-.97-.16-.97-.16h0Z"/>
    <path class="cls-14" d="M13.36,21.05c-.51.34-.65.91-.41.78s.74-.63.74-.79-.32.01-.32.01h-.01Z"/>
    <path class="cls-14" d="M12,20.33c-.16.05-.85,1.08-.36,1.1.48.02.36-1.1.36-1.1Z"/>
    <path class="cls-14" d="M10.51,20.31s-.26.61.14.48-.14-.48-.14-.48Z"/>
  </g>
  <g>
    <polygon class="cls-9" points="2.56 18.81 2.85 20.41 16.54 38.27 48.77 22.13 49.4 20.53 2.56 18.81"/>
    <polygon class="cls-10" points="2.56 18.81 16.78 36.59 49.4 20.53 27.78 7.49 2.56 18.81"/>
  </g>
  <path class="cls-12" d="M12.04,28.19c-.63.01-4.86.04-7.1-3.05-.51-.71-.83-1.45-1.01-2.13-.37-.15-2.07-.9-2.52-2.54-.08-.3-.33-1.14.12-1.72.44-.56,1.34-.51,1.79-.7.71-.3,13.89.3,13.89.3,13.43-2.37,23.34-4.03,26.1-4.42.42-.06,1.93-.26,2.38.46.53.83-.72,2.4-.15,2.94.32.3.82-.08,1.27.3.4.34.43,1.02.3,1.47-.14.51-.5.86-.86,1.11-1.65,1.16-4.16,1.01-4.16,1.01-3.7-.21-7.93,2.73-13.99,6.94-1.53,1.07-3.25,2.37-6.03,3.4-1.52.56-2.8,1.01-4.36.81-3.23-.42-5.16-3.36-5.67-4.2v.02Z"/>
  <g class="cls-16">
    <path class="cls-8" d="M3.83,14.39c0,.39,0,4.72,0,5.1.58,8.93,18.02,14.57,31.49,9.43.16-.06.34-.14.49-.2,6.42-2.61,8.61-6.54,8.61-9.58v-4.64c-7.53-.91-14.03-1.56-19.18-2.03,0,0-19.98-1.81-21.31,1.6-.06.15-.11.31-.11.31h0Z"/>
    <path class="cls-7" d="M44.44,14.51c0,4.09-4,7.15-5.9,8.26-7.9,4.59-20.76,4.59-28.71,0-1.97-1.14-5.81-4.13-5.99-8.38C3.59,9.05,10.6.76,23.69.87c11.8.1,20.74,8.8,20.74,13.64h0Z"/>
  </g>
  <path class="cls-11" d="M29.37,7.05c.15,1.71-2.54,3.22-4.56,4.36-1.63.91-6.65,3.74-11.86,1.72-1.17-.45-3.76-1.45-3.99-3.22-.35-2.69,4.87-6.14,9.83-6.69,4.77-.53,10.37,1.47,10.57,3.83h.01Z"/>
  <g>
    <path class="cls-8" d="M39.41,18.33c-.67.58-1.52.69-1.9.25s-.14-1.26.53-1.84,1.52-.69,1.9-.25.14,1.26-.53,1.84Z"/>
    <path class="cls-3" d="M39.41,18.02c-.67.58-1.52.69-1.9.25s-.14-1.26.53-1.84,1.52-.69,1.9-.25c.38.44.14,1.26-.53,1.84Z"/>
    <path class="cls-1" d="M38.85,17.64c-.44.38-.99.45-1.24.17s-.09-.82.35-1.2c.44-.38.99-.45,1.24-.17s.09.82-.35,1.2Z"/>
  </g>
  <g>
    <path class="cls-8" d="M42.03,12c-.07.89-.59,1.57-1.17,1.52s-.99-.8-.93-1.68.59-1.57,1.17-1.52c.58.04.99.8.93,1.68Z"/>
    <path class="cls-3" d="M41.81,11.77c-.07.89-.59,1.57-1.17,1.52-.58-.04-.99-.8-.93-1.68.07-.89.59-1.57,1.17-1.52.58.04.99.8.93,1.68Z"/>
    <path class="cls-1" d="M41.15,11.9c-.04.58-.38,1.02-.76.99s-.65-.52-.6-1.1c.04-.58.38-1.02.76-.99.38.03.65.52.6,1.1Z"/>
  </g>
  <g>
    <path class="cls-8" d="M33.85,16.21c-.67.58-1.52.69-1.9.25s-.14-1.26.53-1.84c.67-.58,1.52-.69,1.9-.25s.14,1.26-.53,1.84Z"/>
    <path class="cls-3" d="M33.85,15.89c-.67.58-1.52.69-1.9.25-.38-.44-.14-1.26.53-1.84.67-.58,1.52-.69,1.9-.25s.14,1.26-.53,1.84Z"/>
    <path class="cls-1" d="M33.29,15.52c-.44.38-.99.45-1.24.17s-.09-.82.35-1.2.99-.45,1.24-.17.09.82-.35,1.2Z"/>
  </g>
  <g>
    <path class="cls-8" d="M23.92,11.34c-.67.58-1.52.69-1.9.25s-.14-1.26.53-1.84,1.52-.69,1.9-.25.14,1.26-.53,1.84Z"/>
    <path class="cls-3" d="M23.92,11.03c-.67.58-1.52.69-1.9.25s-.14-1.26.53-1.84,1.52-.69,1.9-.25.14,1.26-.53,1.84Z"/>
    <path class="cls-1" d="M23.36,10.65c-.44.38-.99.45-1.24.17-.25-.29-.09-.82.35-1.2s.99-.45,1.24-.17c.25.29.09.82-.35,1.2Z"/>
  </g>
  <g>
    <path class="cls-8" d="M30.39,11.99c-.88.13-1.66-.23-1.74-.8-.08-.57.56-1.14,1.44-1.27.88-.13,1.66.23,1.74.8.08.57-.56,1.14-1.44,1.27Z"/>
    <path class="cls-3" d="M30.56,11.72c-.88.13-1.66-.23-1.74-.8-.08-.57.56-1.14,1.44-1.27.88-.13,1.66.23,1.74.8.08.57-.56,1.14-1.44,1.27Z"/>
    <path class="cls-1" d="M30.28,11.11c-.57.08-1.08-.15-1.14-.52s.36-.74.94-.83,1.08.15,1.14.52c.06.37-.36.74-.94.83Z"/>
  </g>
  <g>
    <path class="cls-8" d="M30.84,6.57c-.88.13-1.66-.23-1.74-.8s.56-1.14,1.44-1.27c.88-.13,1.66.23,1.74.8s-.56,1.14-1.44,1.27Z"/>
    <path class="cls-3" d="M31.01,6.3c-.88.13-1.66-.23-1.74-.8s.56-1.14,1.44-1.27c.88-.13,1.66.23,1.74.8.08.57-.56,1.14-1.44,1.27Z"/>
    <path class="cls-1" d="M30.74,5.68c-.57.08-1.08-.15-1.14-.52s.36-.74.94-.83,1.08.15,1.14.52-.36.74-.94.83Z"/>
  </g>
  <g>
    <path class="cls-8" d="M25.26,16.71c-.88.13-1.66-.23-1.74-.8-.08-.57.56-1.14,1.44-1.27.88-.13,1.66.23,1.74.8s-.56,1.14-1.44,1.27Z"/>
    <path class="cls-3" d="M25.44,16.44c-.88.13-1.66-.23-1.74-.8s.56-1.14,1.44-1.27c.88-.13,1.66.23,1.74.8.08.57-.56,1.14-1.44,1.27Z"/>
    <path class="cls-1" d="M25.16,15.82c-.57.08-1.08-.15-1.14-.52-.06-.37.36-.74.94-.83.57-.08,1.08.15,1.14.52.06.37-.36.74-.94.83Z"/>
  </g>
  <g>
    <path class="cls-8" d="M16.35,22.63c-.88.13-1.66-.23-1.74-.8s.56-1.14,1.44-1.27c.88-.13,1.66.23,1.74.8s-.56,1.14-1.44,1.27Z"/>
    <path class="cls-3" d="M16.52,22.37c-.88.13-1.66-.23-1.74-.8s.56-1.14,1.44-1.27c.88-.13,1.66.23,1.74.8s-.56,1.14-1.44,1.27Z"/>
    <path class="cls-1" d="M16.24,21.75c-.57.08-1.08-.15-1.14-.52s.36-.74.94-.83,1.08.15,1.14.52-.36.74-.94.83Z"/>
  </g>
  <g>
    <path class="cls-8" d="M29.18,20.8c-.86.24-1.67-.02-1.83-.58s.42-1.2,1.27-1.44,1.67.02,1.83.58-.42,1.2-1.27,1.44Z"/>
    <path class="cls-3" d="M29.32,20.51c-.86.24-1.67-.02-1.83-.58s.42-1.2,1.27-1.44c.86-.24,1.67.02,1.83.58s-.42,1.2-1.27,1.44Z"/>
    <path class="cls-1" d="M28.97,19.94c-.56.15-1.09-.02-1.19-.38-.1-.36.27-.78.83-.94.56-.15,1.09.02,1.19.38.1.36-.27.78-.83.94Z"/>
  </g>
  <g>
    <path class="cls-8" d="M16.37,17.79c-.87-.16-1.5-.75-1.39-1.32.1-.57.9-.9,1.77-.74.87.16,1.5.75,1.39,1.32-.1.57-.9.9-1.77.74Z"/>
    <path class="cls-3" d="M16.62,17.59c-.87-.16-1.5-.75-1.39-1.32.1-.57.9-.9,1.77-.74.87.16,1.5.75,1.39,1.32-.1.57-.9.9-1.77.74Z"/>
    <path class="cls-1" d="M16.56,16.92c-.57-.1-.97-.49-.91-.86s.58-.59,1.15-.48c.57.1.97.49.91.86-.07.37-.58.59-1.15.48Z"/>
  </g>
  <g>
    <path class="cls-8" d="M16.98,13.22c-.87-.16-1.5-.75-1.39-1.32.1-.57.9-.9,1.77-.74.87.16,1.5.75,1.39,1.32s-.9.9-1.77.74Z"/>
    <path class="cls-3" d="M17.23,13.02c-.87-.16-1.5-.75-1.39-1.32.1-.57.9-.9,1.77-.74.87.16,1.5.75,1.39,1.32-.1.57-.9.9-1.77.74Z"/>
    <path class="cls-1" d="M17.17,12.35c-.57-.1-.97-.49-.91-.86s.58-.59,1.15-.48c.57.1.97.49.91.86-.07.37-.58.59-1.15.48Z"/>
  </g>
  <g>
    <path class="cls-8" d="M23.32,6.02c-.87-.16-1.5-.75-1.39-1.32.1-.57.9-.9,1.77-.74s1.5.75,1.39,1.32c-.1.57-.9.9-1.77.74Z"/>
    <path class="cls-3" d="M23.56,5.82c-.87-.16-1.5-.75-1.39-1.32.1-.57.9-.9,1.77-.74s1.5.75,1.39,1.32-.9.9-1.77.74Z"/>
    <path class="cls-1" d="M23.5,5.15c-.57-.1-.97-.49-.91-.86s.58-.59,1.15-.48c.57.1.97.49.91.86s-.58.59-1.15.48Z"/>
  </g>
  <g>
    <path class="cls-8" d="M8.77,11.91c-.87-.16-1.5-.75-1.39-1.32s.9-.9,1.77-.74,1.5.75,1.39,1.32c-.1.57-.9.9-1.77.74Z"/>
    <path class="cls-3" d="M9.02,11.71c-.87-.16-1.5-.75-1.39-1.32.1-.57.9-.9,1.77-.74s1.5.75,1.39,1.32c-.1.57-.9.9-1.77.74Z"/>
    <path class="cls-1" d="M8.95,11.04c-.57-.1-.97-.49-.91-.86.07-.37.58-.59,1.15-.48s.97.49.91.86c-.07.37-.58.59-1.15.48Z"/>
  </g>
  <g>
    <path class="cls-8" d="M14.63,7.48c-.87-.16-1.5-.75-1.39-1.32.1-.57.9-.9,1.77-.74.87.16,1.5.75,1.39,1.32-.1.57-.9.9-1.77.74Z"/>
    <path class="cls-3" d="M14.88,7.28c-.87-.16-1.5-.75-1.39-1.32.1-.57.9-.9,1.77-.74.87.16,1.5.75,1.39,1.32-.1.57-.9.9-1.77.74Z"/>
    <path class="cls-1" d="M14.82,6.61c-.57-.1-.97-.49-.91-.86.07-.37.58-.59,1.15-.48.57.1.97.49.91.86s-.58.59-1.15.48Z"/>
  </g>
  <g>
    <path class="cls-8" d="M9.69,18.23c-.88-.1-1.55-.64-1.48-1.22.06-.58.83-.96,1.71-.87.88.1,1.55.64,1.48,1.22-.06.58-.83.96-1.71.87Z"/>
    <path class="cls-3" d="M9.93,18.01c-.88-.1-1.55-.64-1.48-1.22.06-.58.83-.96,1.71-.87.88.1,1.55.64,1.48,1.22s-.83.96-1.71.87Z"/>
    <path class="cls-1" d="M9.81,17.35c-.58-.06-1.01-.42-.97-.79.04-.38.54-.63,1.12-.57.58.06,1.01.42.97.79s-.54.63-1.12.57Z"/>
  </g>
  <g>
    <path class="cls-8" d="M22.32,23.91c-.88-.1-1.55-.64-1.48-1.22.06-.58.83-.96,1.71-.87.88.1,1.55.64,1.48,1.22s-.83.96-1.71.87Z"/>
    <path class="cls-3" d="M22.55,23.69c-.88-.1-1.55-.64-1.48-1.22.06-.58.83-.96,1.71-.87.88.1,1.55.64,1.48,1.22-.06.58-.83.96-1.71.87Z"/>
    <path class="cls-1" d="M22.44,23.03c-.58-.06-1.01-.42-.97-.79s.54-.63,1.12-.57,1.01.42.97.79c-.04.38-.54.63-1.12.57Z"/>
  </g>
  <g>
    <path class="cls-8" d="M33.5,22.58c-.87.15-1.66-.19-1.76-.76s.53-1.16,1.41-1.31c.87-.15,1.66.19,1.76.76s-.53,1.16-1.41,1.31Z"/>
    <path class="cls-3" d="M33.66,22.31c-.87.15-1.66-.19-1.76-.76s.53-1.16,1.41-1.31c.87-.15,1.66.19,1.76.76s-.53,1.16-1.41,1.31Z"/>
    <path class="cls-1" d="M33.37,21.7c-.57.1-1.08-.12-1.15-.49-.06-.37.35-.75.92-.85s1.08.12,1.15.49c.06.37-.35.75-.92.85Z"/>
  </g>
  <g>
    <path class="cls-8" d="M36.07,10.56c-.89.02-1.62-.42-1.64-1s.69-1.07,1.58-1.09c.89-.02,1.62.42,1.64,1s-.69,1.07-1.58,1.09Z"/>
    <path class="cls-3" d="M36.28,10.32c-.89.02-1.62-.42-1.64-1s.69-1.07,1.58-1.09c.89-.02,1.62.42,1.64,1s-.69,1.07-1.58,1.09Z"/>
    <path class="cls-1" d="M36.07,9.67c-.58.02-1.06-.28-1.07-.65,0-.38.45-.7,1.03-.71.58-.02,1.06.28,1.07.65,0,.38-.45.7-1.03.71Z"/>
  </g>
</svg>