<?xml version="1.0" encoding="UTF-8"?>
<svg xmlns="http://www.w3.org/2000/svg" version="1.1" viewBox="0 0 50 50">
  <defs>
    <style>
      .cls-1 {
        fill: #8c9137;
      }

      .cls-1, .cls-2, .cls-3, .cls-4, .cls-5, .cls-6, .cls-7, .cls-8, .cls-9, .cls-10, .cls-11, .cls-12 {
        stroke-width: 0px;
      }

      .cls-2 {
        fill: #fcdbe5;
      }

      .cls-13 {
        isolation: isolate;
      }

      .cls-3 {
        opacity: .7;
      }

      .cls-3, .cls-4, .cls-7 {
        fill: #ce3e32;
      }

      .cls-3, .cls-14 {
        mix-blend-mode: multiply;
      }

      .cls-5 {
        fill: #f8a349;
      }

      .cls-14 {
        opacity: .3;
      }

      .cls-6 {
        fill: #b5bc45;
      }

      .cls-7 {
        mix-blend-mode: screen;
        opacity: .5;
      }

      .cls-8 {
        fill: #fdeef3;
      }

      .cls-9 {
        fill: #f8bcd1;
      }

      .cls-10 {
        fill: #fff;
      }

      .cls-11 {
        fill: #c46d29;
      }

      .cls-12 {
        fill: #e28425;
      }
    </style>
  </defs>
  <g class="cls-13">
    <g id="Layer_1" data-name="Layer 1">
      <g>
        <path class="cls-11" d="M38.71,36.7l1.42,1.45s-1.48.34-2.97,2.43c-1.49,2.1-.87,4.81-3.51,5.62-.17.05-.32.11-.45.16-1.09.46-1.22,1.07-1.44,1.5-.19.37-.43.62-1.35.56-1.44-.09-1.37-.48-2.35-.05h0c-.17.08-.35.15-.55.2-.47.13-.86.17-1.37.13-.67-.05-.97-.26-1.34-.42-.18-.09-.37-.16-.63-.21-1.19-.21-1.35.57-2.85.56h-.04c-1.09-.02-2.07-.44-2.33-.56-.01,0-.02-.01-.04-.02-.67-.29-.75-.46-1.38-.64-.56-.16-.89-.14-1.2-.16-.18-.02-.36-.05-.58-.14-.22-.1-.49-.26-.76-.58-.16-.19-.32-.43-.47-.74l-.26-.3-3.53-3.91s-4.93-9.87-5.07-10.27c1.25.07,2.5.13,3.75.2-.25-1.25-.49-2.5-.74-3.75,1.14,1.39,2.28,2.77,3.42,4.16,4.53,1.33,9.06,2.66,13.59,3.99l11.36-.95.53.54.99-1.77.03-1.85-.17-2.54,2.05-.28-1.23,4.33.64-.27,2.19.44-2.5,3.08-.85.03Z"/>
        <path class="cls-12" d="M35.48,40.96l-2.28,5.41c-1.09.46-1.22,1.07-1.44,1.5l.58-7.32,3.14.41Z"/>
        <path class="cls-12" d="M28.54,42.43l-.48,5.96h0c-.17.08-.35.15-.55.2-.47.13-.86.17-1.37.13-.67-.05-.97-.26-1.34-.42l.7-6.78,3.04.92Z"/>
        <path class="cls-12" d="M20.88,42.58l.44,6.07h-.04c-1.09-.02-2.07-.44-2.33-.56-.01,0-.02-.01-.04-.02l-1.27-7.06,3.24,1.57Z"/>
        <path class="cls-12" d="M16.32,47.27c-.18-.02-.36-.05-.58-.14-.22-.1-.49-.26-.76-.58-.15-.22-.31-.47-.47-.74l-.26-.3c-2.05-2.48-2.9-6.12-2.9-6.12l2.28-.26c.04.15,2.58,6.32,2.69,8.14Z"/>
        <path class="cls-12" d="M7.92,34.94l2.8,6.66s-.51-3.99-.91-5.47c-.41-1.49-1.89-1.18-1.89-1.18Z"/>
        <path class="cls-5" d="M39.12,34.5c-.4,1.82,2.57,2.84,1.02,3.65-1.56.81-3.99-1.42-4.87.4-.18.38-.21.73-.18,1.04.12,1.21,1.22,1.92-1.3,1.86-3.17-.06-1.9-2.64-3.85-1.22-1.96,1.42-.34,3.18-2.91,2.77-2.57-.4-1.76-3.17-4.33-2.09-2.57,1.08-1.15,1.69-2.36,1.96-1.22.27-2.37-.61-2.84-2.23-.47-1.63-1.08-1.83-2.91-1.08-1.82.74-2.57,1.48-3.11.47-.54-1.02.41-2.84-.27-3.52-.68-.67-1.29.75-2.84-.88-1.51-1.56,1.34-2.76,1.24-3.08,0,0-.02-.02-.02-.03-.49-.58-2.3.46-3.32-.2-.33-.21-.62-.63-.61-1.02.02-.43.44-.85,1.16-1.21.73-.36,1.75-.64,2.96-.81-1-1.18-1.11-1.3-1.11-1.52-.04-.79,1.09-1.49,2.09-2.13.39-.24.69-.39.99-.54,1.47-.73,2.85-1.28,3.34-1.45,4.09-1.44,11.59.64,16.32-.17,0,0,2.26-.32,2.96.25.05.03.08.07.11.11.17.22-.13.62,1.19,1.4.91.54.91.69.91.77.02.47-1.22.73-1.18.99.04.2.81.09,1.97.33.16.04,1.24.28,2.36,1.02.47.32.77.49.73.73-.07.4-1.52.43-1.48,1.49.07,1.49,2.77.68,3.25,2.37.47,1.69-2.7-.27-3.11,1.56Z"/>
        <path class="cls-12" d="M12.37,26.15l-1.67.76s-1.42-.1-.46,1.22c.96,1.32,1.01,1.72-.61,2.23-1.62.51-1.61,1.01-.22,1.17,1.39.15,1.13,1.52.93,2.79s.56-.2,2.03,1.47c1.06,1.21-.23,1.97-.09,2.29.09.22.53.2,1.01.19,2.63-.06,3.13.06,3.5.2.38.15.9.36,1.19.87.34.59.12,1.08.51,1.59.16.21.43.38.93.5.96.21,1.25-1.2,2.89-1.59.23-.05,1.61-.19,2.81.34.65.29.96.68,1.65.93,1.27.46,1.22-1.57,2.99-1.93,1.77-.35,1.72.51,3.04.61s.1-.71,1.32-1.98c1.22-1.27,2.89,0,3.85-.76.96-.76-1.17-2.84-.05-3.6s2.59-.25,1.83-1.01c-.76-.76-2.28-1.88-1.62-2.74s2.39-.27.51-1.17c-1.88-.89-5.93-3.24-8.57-3.55-2.64-.3-17.69,1.17-17.69,1.17Z"/>
        <g class="cls-14">
          <path class="cls-12" d="M39.12,34.5c-.4,1.82,2.57,2.84,1.02,3.65-1.56.81-3.99-1.42-4.87.4-.18.38-.21.73-.18,1.04-6.64.4-13.99-.43-13.99-.43l11.25-15.27,2.02-.17s.08.07.11.11c.17.22-.13.62,1.19,1.4.91.54.91.69.91.77.02.47-1.22.73-1.18.99.04.2.81.09,1.97.33.16.04,1.24.28,2.36,1.02.47.32.77.49.73.73-.07.4-1.52.43-1.48,1.49.07,1.49,2.77.68,3.25,2.37.47,1.69-2.7-.27-3.11,1.56Z"/>
        </g>
        <g>
          <g>
            <path class="cls-2" d="M36.55,28.03c-.03.06-.07.12-.11.17-.06.09-.13.17-.19.25-.17.21-.38.42-.6.61,0,0-.01.01-.02.02-.35.29-.77.56-1.26.77.16,1.83-.24,3.56-1.34,4.97-1.16,1.49-3.71,3.6-5.42,4.02h0s0,0,0,0c-1.55.38-3.14.47-4.38.54-6.56.35-18.16-7.93-11.18-13.02h0c-.18-1.92.86-3.7,2.88-4.53-.15-.55-.32-1.5-.07-2.59.11-.47.32-.99,2.34-3.33,1.7-1.98,2.12-2.28,2.67-2.3.04,0,.09,0,.13,0,4.96-.15,5.68-.94,5.68-.94.31-.02.8-.01,1.33.17,1.24.41,1.69,1.38,3.01,2.62.42.4,1.06.95,1.95,1.51h0c.18.32.23.47.33.8,0,0,0,0,0,0,.02.06.03.13.03.13.1.4.05.99.02,1.07-.04.24-.09.41-.13.52-.05.17.69.33,1.2.49h0s0,0,0,0c.07.04.15.09.22.14.85.54,1.33,1.34,1.44,2.22.02.18.03.38.01.58.09.06.18.12.26.18.12.09.24.17.34.27.08.07.15.14.22.21.06.06.12.12.17.19.05.06.11.13.16.2.11.13.2.27.28.41.13.21.23.44.31.67.02.07.05.15.07.23.02.08.04.15.06.23.17.84.03,1.72-.43,2.51Z"/>
            <path class="cls-9" d="M15.76,23.05c-1.43,1.94-1.48,4.44-.12,6.37,1.25,1.78,3.52,2.81,5.9,2.7-.43-.14-4.22-1.48-5.19-4.93-.47-1.66-.08-3.09.18-3.81l-.77-.33Z"/>
            <path class="cls-9" d="M12.03,26.37s-.99,2.83,3.57,5.53c4.56,2.69,10.02.61,12.45,2.28,2.43,1.67-.45,4.66-.45,4.66,0,0,3.7-2.35,4.4-4.77.71-2.42-5.22-2.82-9.9-2.44-4.68.38-9.75-1.83-10.08-5.26Z"/>
            <path class="cls-9" d="M27.6,38.84c-1.55.38-3.14.47-4.38.54-1.89.1-6.85-.89-10.65-4.45-3.13-2.95-3.81-6.19-.54-8.56-.05.11-1.46,2.91.44,6.6,1.94,3.76,9.08,6.79,15.13,5.87Z"/>
            <path class="cls-8" d="M36.83,27.44c-.03.07-.05.13-.08.2-.06.13-.12.26-.2.39-.03.06-.07.12-.11.17-.06.09-.13.17-.19.25-.19.24-.41.45-.62.62-.35-2.84-2.74-3.13-3.66-3.07-.92.05-2.83.16-3.7.3-.48.08-.84-.06-1.05-.19h0c-.17-.11-.26-.23-.26-.23l.77-1.18.67-1.75c.91-.01,3.02-1.75,2.84-2.81h0s0-.03,0-.04c-.06-.3-.28-.44-.28-.44,0,0-.41-.15,1.29-.17,0,0,0,0,.02,0,.03,0,.26.07.29.09.38.12.86.37.89.39h0s0,0,0,0c.07.04.15.09.22.14.78.49,1.35,1.27,1.44,2.22.02.18.03.38.01.58.09.06.18.12.26.18.12.09.23.17.34.27.08.07.15.14.22.21.06.06.12.12.17.19.05.06.11.13.16.2.1.13.19.27.28.41.13.21.23.44.31.67.02.07.05.15.07.23.02.08.04.15.06.23.1.47.1.95,0,1.43,0,.04-.03.08-.04.12-.03.12-.07.25-.11.37Z"/>
          </g>
          <path class="cls-9" d="M34.37,29.85c.03.33.05.78.02,1.29l-1.65-.97-7.52-1.31-.65-1.78,1.46-.54s.06.69,1.03.73c.98.03,2.73-.25,4.05-.26s3.46.31,4.16,1.39c.16.24.28.47.37.67-.59.49-1.16.73-1.26.77Z"/>
          <path class="cls-8" d="M37.28,33.35c-1.31,2.51-4.48,5.47-9.68,5.49,0,0,0,0,.01,0,1.67-.73,3.56-3.16,3.5-4.2-.01-.21-.04-.98-1.16-1.7-3.08-1.98-6.47.39-10.45-1.41-.28-.13-2.76-1.29-3.59-3.66-.75-2.13.09-4.47.63-4.49.39-.02.26,1.14,1.39,2.25,1.43,1.4,3.67,1.56,4.3,1.61.99.07,1.81-.05,2.34-.15.51.33,1.34.79,2.45.97.75.13,1.44.18,2.08.18,1.46,0,1.96-.26,2.81-.3.85-.04,2.11.12,3.72,1.14.25-.23.57-.58.84-1.05.45-.8.54-1.56.56-1.98.15.28,2.02,3.93.25,7.3Z"/>
          <path class="cls-2" d="M37.28,33.35c-1.31,2.51-4.48,5.47-9.68,5.49,0,0,0,0,.01,0,.29-.09,4.95-1.48,7.07-4.43,2.18-3.04.95-5.33.95-5.33.25-.23.57-.58.84-1.05.45-.8.54-1.56.56-1.98.15.28,2.02,3.93.25,7.3Z"/>
          <path class="cls-8" d="M27.22,22.16c-.09.38-.53,2.37-2.03,3.57-1.14.91-2.37,1.08-2.77,1.12-.8.08-1.64-.01-2.44-.33-2.16-.86-2.69-2.84-2.77-3.22,0-.02,0-.04-.01-.05,0-.02,0-.03,0-.03-.94-3.33.9-5.89.9-5.89.72-.95,1.97-2.41,2.61-2.12.64.29-.07,1.94.94,3.94.11.21.97,1.87,1.79,1.75.64-.1,1.15-1.26,1.22-2.87.92.78,1.81,1.36,2.21,1.09.58-.38-.56-2.58-.09-2.85.33-.19,1.18.68,1.63,1.25.78,1,1.36,2.41.98,2.74-.3.26-.89-.37-1.45-.1-.52.25-.48,1-.71,1.99Z"/>
          <path class="cls-9" d="M27.22,14.05c0,2-1.63,3.63-3.63,3.63-1.16,0-2.2-.55-2.87-1.4-.47-.61-.76-1.39-.76-2.23,0-.15,0-.3.03-.44,4.96-.15,5.68-.94,5.68-.94.31,0,.77.04,1.33.17.14.38.21.79.21,1.22Z"/>
          <path class="cls-9" d="M31.2,20.1s0,0,0,0c0,.01,0,.03.02.04h0c.43,1.49-.54,2.96-2.39,3.3-.19,1.04-.73,1.97-1.61,2.67h0c-.63.5-1.45.88-2.45,1.1-.05.01-.09.02-.14.02-.46.09-.85.13-1.1.15-2.88.25-5.79-1.07-6.36-2.4-.04-.11-.55-1.38-.55-1.38-.41-.2-1.69-1-1.7-1.76.46.88,2.29,1.42,2.29,1.42.23.93.74,1.72,1.46,2.31.83.68,1.7.9,2.3,1.04,3.48.84,6.29-.17,6.83-3.64.57-3.58,2.64,1.08,2.46-2.5-.09-1.76-1.57-3.31-2.24-4.61-.67-1.3,1.78,2.14,2.51,2.78.74.64.62.67.9-.83.1-.55.3-.79.54-.83h0c.18.32.23.47.33.8,0,0,0,0,0,0,.02.06.03.13.03.13.07.34.06.69.02,1.04,0,0,0,.02,0,.02-.04.25-.09.41-.13.52,0,0,0,0,.02,0,.07,0,.66.18,1.14.45.02,0,.03.02.05.02,0,0,0,0,0,0,.27.16.3.18.45.29-1.1.48-2.33-.03-2.67-.17Z"/>
          <path class="cls-10" d="M34.48,22.38s-2.66.69-2.82,1.88c0,.04-.1.24-.27.47-.12.17-.56.77-1.02.76-.51-.01-1.14-.79-.99-1.38.26-.99,2.58-.93,2.81-1.99.1-.48-.31-.79-.06-1.09.27-.33,1.04-.32,1.56-.06.52.26.81.81.79,1.41Z"/>
          <path class="cls-10" d="M21.37,25.51c.06,0,.96-.02,1.31-.55.68-1.04-1.61-3.25-2.19-4.36-1.94-3.72.2-4.25-.24-4.33-1.71-.29-4.46,9.34,1.12,9.23Z"/>
          <path class="cls-10" d="M23.43,28.68c-.13.23.53,1.6,2.72,2.15,2.19.55,5.65-.86,6.18.97.53,1.83-.17,2.47-.17,2.47,2.41-2.47,1.87-5.91-3.4-5.12-2.89.43-5.34-.46-5.34-.46Z"/>
          <path class="cls-8" d="M12.07,29.78c.47,2.13,1.52,3.43,2.16,4.09,3.4,3.48,8.22,4.45,9.63,4.36,1.41-.09,2.56-.34,3.36-.56-1.4.2-5.69-.56-10.5-3.43-2.46-1.47-3.89-3.28-4.65-4.45Z"/>
        </g>
        <g>
          <path class="cls-6" d="M28.03,13.37c.72-.02,1.3.34,1.42.81.02.09.06.31-.07.61-1.03-.34-1.74-.23-2.19-.07-.69.25-1.02.69-1.44.92-.18.1-.38.16-.63.15-.61-.04-1.1-.49-1.28-.67-.24-.23-.54-.51-.61-.92-.09-.56.3-1.18.95-1.57,0,0,.34-2.37,1.83-2.43,1.49-.07.81,1.08.81,1.08,0,0,2.43-1.76,2.77-1.69.34.06-.34,1.01-.88,1.96-.54.95,1.62-.13,1.55.81-.07.95-2.23,1.01-2.23,1.01Z"/>
          <path class="cls-1" d="M28.36,12.88c-.88.23-1.15.37-1.14.47.02.17.89.21.89.34,0,.12-.68.08-.9.47-.11.19-.07.41-.02.56-.69.25-1.02.69-1.44.92-.04,0-.08-.01-.12-.03,0,0-.2-.07-.76-1.32l.1-3.45c.2-.03.83-.43,1.09-.22.04.03.06.08.1.16.2.44.03.73.21.99.01.02.11.14.26.19.56.19,1.31-.81,1.41-.71.03.03.01.1-.06.23-.38.71-1.01,1.11-.95,1.19.13.22,1.68-.09,1.71.01,0,.04-.18.11-.37.18Z"/>
          <path class="cls-4" d="M19.36,13.46c0,.84.28,1.61.76,2.23.67.85,1.71,1.4,2.87,1.4,2,0,3.63-1.63,3.63-3.63,0-.44-.08-.87-.22-1.26-.32-.86-.96-1.57-1.77-1.98-.49-.25-1.05-.39-1.64-.39-1.55,0-2.87.97-3.39,2.33-.16.4-.24.84-.24,1.3Z"/>
          <path class="cls-7" d="M22.66,12.65c0,.61-.49,1.1-1.1,1.1s-1.1-.49-1.1-1.1.49-1.1,1.1-1.1,1.1.49,1.1,1.1Z"/>
          <path class="cls-3" d="M20.12,15.68c.67.85,1.71,1.4,2.87,1.4,2,0,3.63-1.63,3.63-3.63,0-.44-.08-.87-.22-1.26-.3,1.1-2,3.07-3.41,3.4-1.31.3-2.11.24-2.87.09Z"/>
        </g>
        <g>
          <path class="cls-3" d="M22.53,10.61s-.14.12-.23.3c-.08.16-.06.36,0,.38.09.03.26-.58.51-.57.1,0,.12.11.3.19.22.1.47.08.49.02.02-.06-.2-.22-.44-.27-.09-.02-.16-.02-.17-.05-.03-.09.4-.24.38-.33-.01-.05-.14-.06-.24-.04-.24.04-.37.26-.4.31-.52-.25-.68-.26-.71-.22-.03.05.05.18.17.24.15.08.32,0,.34.05Z"/>
          <path class="cls-1" d="M22.61,10.57c-.04-1.39-.32-2.5-.56-3.25-.19-.57-1.06-3.26-2.39-4.13-.08-.05-.4-.25-.66-.63-.35-.5-.51-1.18-.35-1.28.28-.17,1.56,1.44,1.61,1.51,1.44,1.83,1.99,3.67,2.15,4.29.22.81.45,2.02.41,3.53-.02.04-.07.07-.12.06-.05-.01-.08-.05-.09-.1Z"/>
        </g>
      </g>
    </g>
  </g>
</svg>