<?xml version="1.0" encoding="UTF-8"?>
<svg id="Layer_1" data-name="Layer 1" xmlns="http://www.w3.org/2000/svg" version="1.1" viewBox="0 0 50 50">
  <defs>
    <style>
      .cls-1 {
        fill: #dd5249;
      }

      .cls-1, .cls-2, .cls-3, .cls-4, .cls-5, .cls-6, .cls-7, .cls-8, .cls-9, .cls-10 {
        stroke-width: 0px;
      }

      .cls-2 {
        fill: #fdd174;
      }

      .cls-3 {
        fill: #fdbc61;
      }

      .cls-4 {
        fill: #522236;
      }

      .cls-11 {
        isolation: isolate;
      }

      .cls-5 {
        fill: #6b9a40;
      }

      .cls-6 {
        fill: #faaa49;
      }

      .cls-7 {
        fill: #f0812e;
      }

      .cls-8 {
        fill: #fdb849;
      }

      .cls-12 {
        mix-blend-mode: screen;
      }

      .cls-9 {
        fill: #fad34b;
      }

      .cls-10 {
        fill: #81302a;
      }
    </style>
  </defs>
  <g class="cls-11">
    <g id="Layer_1-2" data-name="Layer 1">
      <g>
        <path class="cls-6" d="M46.46,9.49l-2.15,1.51s.01.03.01.12l.02.84.04,2.17c-.91.75-1.85,1.49-2.79,2.24-.65.52-1.31,1.04-1.97,1.55-2.87,2.25-5.83,4.5-8.92,6.76-1.15.84-2.32,1.7-3.5,2.54-8.62,6.15-17,11.56-24.97,16.27,4.86-10.54,9.74-21.07,14.61-31.61l-.23-1.11-.43-2,1.41-1.88c.64-.19,1.3-.35,1.96-.52,2.45-.61,5.02-1.12,7.59-1.42,7.07-.84,14.19-.06,19.31,4.54v-.02Z"/>
        <path class="cls-8" d="M44.3,11c.02.13.03.83.03.96.02.51.04,1.23.04,2.17-6.43-3.66-11.47-4.21-13.99-4.29-3.96-.11-8.87.52-13.54,2.03l-.66-3.1c7.88-3.5,23.64-5.48,28.12,2.22h0Z"/>
        <path class="cls-9" d="M46.46,9.49l-2.15,1.51c-9.42-7.12-28.12-2.22-28.12-2.22l1.41-1.88c.63-.48,1.68-1.16,3.14-1.57,1.25-.35,2.32-.38,3.06-.34,4.12-1.49,6.65-1.39,9.21-.62,3.23-.64,6.56-.36,8.83,2.05.61.14,1.56.43,2.58,1.09,1.03.68,1.7,1.46,2.07,1.98h-.02Z"/>
        <path class="cls-7" d="M46.46,9.49c.51.7,1.61,2.45,1.45,4.73,0,.04,0,.09-.01.13-.08.84-.54,1.61-1.2,2.11-5.34,4.07-10.9,8.14-16.67,12.24-8.59,6.07-17.03,11.71-25.25,16.92-.6.38-1.4.15-1.71-.48l-.81-1.63c7.94-4.78,16.24-10.16,24.77-16.23,6.17-4.4,11.97-8.8,17.37-13.14l-.08-3.12,2.15-1.51h0Z"/>
        <path class="cls-2" d="M41.01,19.39c-.72.29-1.4-.19-2.5.38-.27.14-.47.27-.6.39-.59.59-.56,1.44-1.59,2.49-2.16,2.19-4.84,1.17-6.48,3.57-.26.39-.11.33-.4.82-1.3,2.15-3.02,1.74-5.3,3.58-1.85,1.49-1.83,2.63-3.45,3.04-.86.21-1.21-.02-2.08.35-1.21.51-1.08,1.22-2.39,2.23-.25.19-.48.33-.69.45-.72.39-1.25.56-1.6.69-.95.39-.91.92-1.86,1.61-1.67,1.23-3.43.72-3.7,1.59-.13.46.31.7.12,1.23-.23.62-1.08,1.08-1.6.88-.23-.1-.3-.27-.41-.38-.35-.36-1.39-.32-4.24,1.21,4.86-10.54,9.74-21.07,14.61-31.61,4.77-1.25,6.37-.83,6.83-.09.2.31.33.91.8,1.04.58.16,1.21-.51,1.57-.85,1.12-1,2.48-1.13,4.77-1.34,4.04-.37,8.71,1.54,8.81,3.36.03.7-.61,1.22-.32,1.63.42.63,2.13-.37,2.8.3.69.69.08,2.97-1.09,3.45h.02Z"/>
        <path class="cls-3" d="M41.01,19.39c-.72.29-1.4-.19-2.5.38-.27.14-.47.27-.6.39-.59.59-.56,1.44-1.59,2.49-2.16,2.19-4.84,1.17-6.48,3.57-.26.39-.11.33-.4.82-1.3,2.15-3.02,1.74-5.3,3.58-1.85,1.49-1.83,2.63-3.45,3.04-.86.21-1.21-.02-2.08.35-1.21.51-1.08,1.22-2.39,2.23-.25.19-.48.33-.69.45-.72.39-1.25.56-1.6.69-.95.39-.91.92-1.86,1.61-1.67,1.23-3.43.72-3.7,1.59-.13.46.31.7.12,1.23-.23.62-1.08,1.08-1.6.88-.23-.1-.3-.27-.41-.38-.35-.36-1.39-.32-4.24,1.21,7.94-4.78,16.24-10.16,24.77-16.23,5.32-3.78,10.35-7.58,15.1-11.33.69.69.08,2.97-1.09,3.45h.02Z"/>
        <g>
          <path class="cls-10" d="M22.4,14.09c-2.48-.35-5.7.95-7.21,2.92-1.22,1.58-.65,2.67-.65,2.67.31.77.38,1.07,1.09,1.51,2.16,1.34,6.71.11,8.68-2.41,1.62-2.08.42-4.36-1.9-4.7h-.01Z"/>
          <path class="cls-1" d="M22.4,14.09c2.45.35,3.22,2.21,1.69,4.17-1.52,1.96-4.75,3.27-7.2,2.91-2.47-.35-3.23-2.21-1.71-4.17,1.52-1.96,4.75-3.27,7.21-2.92h.02Z"/>
          <g class="cls-12">
            <path class="cls-1" d="M20.86,15.62c.63.09.82.56.43,1.06s-1.21.83-1.83.74c-.63-.09-.82-.56-.43-1.06s1.21-.83,1.83-.74Z"/>
          </g>
          <g class="cls-12">
            <path class="cls-1" d="M18.83,18.44c.63.09.82.56.43,1.06s-1.21.83-1.83.74c-.63-.09-.82-.56-.43-1.06s1.21-.83,1.83-.74Z"/>
          </g>
          <g class="cls-12">
            <path class="cls-1" d="M17.62,16.91c.44.06.58.4.3.75s-.85.58-1.29.52-.58-.4-.3-.75.85-.58,1.29-.52Z"/>
          </g>
        </g>
        <path class="cls-4" d="M30.5,12.4c-.15-.38-.55-.66-1.17-.75-1.23-.17-2.86.49-3.61,1.46-.5.64-.45,1.09-.2,1.62.58,1.22,3.8.86,4.89-1.02.38-.63.27-.9.1-1.32h0ZM26.97,14.69c-.37-.05-.58-.25-.73-.45-.05-.25-.03-.52.2-.82.26-.35.69-.63,1.16-.82h.03c.73-.31,1.69-.43,2.12.23.22,1.12-1.64,2.03-2.78,1.86h0Z"/>
        <path class="cls-4" d="M20.98,23.97c-.15-.38-.55-.66-1.17-.75-1.23-.17-2.86.49-3.61,1.46-.5.64-.45,1.09-.2,1.62.58,1.22,3.8.86,4.89-1.02.38-.63.27-.9.1-1.32h0ZM17.45,26.26c-.37-.05-.58-.25-.73-.45-.05-.25-.03-.52.2-.82.26-.35.69-.63,1.16-.82h.03c.73-.31,1.69-.43,2.12.23.22,1.12-1.64,2.03-2.78,1.86h0Z"/>
        <path class="cls-4" d="M38.81,15.82c-.14-.35-.5-.62-1.08-.7-1.14-.16-2.65.45-3.34,1.35-.47.59-.42,1.02-.19,1.5.53,1.12,3.52.8,4.52-.94.35-.58.24-.83.1-1.22h-.01ZM35.54,17.94c-.35-.05-.53-.23-.66-.43-.04-.22-.03-.48.19-.76.25-.32.65-.59,1.07-.76h.03c.67-.29,1.56-.39,1.96.22.2,1.04-1.51,1.87-2.57,1.72h-.01Z"/>
        <path class="cls-5" d="M25.35,20.14c-.77-.08-3.56,2.07-3.88,2.68s3.24-.17,4.63-1.32-.75-1.36-.75-1.36Z"/>
        <path class="cls-5" d="M32.09,16.01c.34-.34-2.23-.55-3.42-.07-1.69.68,1.47,2.04,3.42.07Z"/>
        <path class="cls-5" d="M24.09,26.65c.2-.45-2.28.29-3.23,1.17-1.34,1.25,2.11,1.37,3.23-1.17Z"/>
        <path class="cls-5" d="M14.04,22.8c-.04-.34-1.28.95-1.54,1.8-.38,1.2,1.74.12,1.54-1.8Z"/>
        <path class="cls-5" d="M6.6,38.17c.7.3,4.01-.94,4.5-1.43s-3.14-.77-4.81-.1.33,1.52.33,1.52h-.01Z"/>
        <g>
          <g>
            <path class="cls-10" d="M36.06,20.61c-3.59,2.73-7.44,5.51-8.24,6.07-.14-.04-.28-.1-.42-.16-.14-.07-.27-.13-.38-.2-.71-.44-.78-.73-1.09-1.51-.09-.16-.15-.59-.12-.64-.03-.25.04-.61.12-.86,1.05-3.27,7.77-5.69,9.93-3,.08.1.15.18.21.29h-.01Z"/>
            <path class="cls-1" d="M36.07,20.61h0c-2.49,1.89-5.08,3.8-7.73,5.7-1.1-.09-2.29-.69-2.51-1.79-.04-.09-.03-.18-.04-.28,0-.02-.02-.04,0-.07-.03-.2,0-.61.21-1.07.86-2.25,4.99-4.52,8.22-3.79.92.22,1.56.68,1.84,1.31v-.02Z"/>
            <path class="cls-10" d="M36.06,20.61c-3.59,2.73-7.44,5.51-8.24,6.07-.14-.04-.28-.1-.42-.16,2.91-2.06,5.72-4.14,8.45-6.21.08.1.15.18.21.29Z"/>
          </g>
          <g class="cls-12">
            <path class="cls-1" d="M29.66,21.05c.43.07.56.39.29.73-.26.35-.83.57-1.26.51s-.56-.39-.29-.73.83-.57,1.26-.51Z"/>
          </g>
          <g class="cls-12">
            <path class="cls-1" d="M33.11,20.12c.68.09.89.61.47,1.15-.42.53-1.3.89-1.99.8s-.89-.61-.47-1.15c.42-.53,1.3-.89,1.99-.8Z"/>
          </g>
          <g class="cls-12">
            <path class="cls-1" d="M28.27,23.71c.43.07.56.39.29.73-.26.35-.83.57-1.26.51s-.56-.39-.29-.73.83-.57,1.26-.51Z"/>
          </g>
        </g>
        <g>
          <path class="cls-10" d="M15.77,27.49c-2.48-.35-5.7.95-7.21,2.92-1.22,1.58-.65,2.67-.65,2.67.31.77.38,1.07,1.09,1.51,2.16,1.34,6.71.11,8.68-2.41,1.62-2.08.42-4.36-1.9-4.7h-.01Z"/>
          <g>
            <path class="cls-1" d="M15.77,27.49c2.45.35,3.22,2.21,1.69,4.17-1.52,1.96-4.75,3.27-7.2,2.91-2.47-.35-3.23-2.21-1.71-4.17,1.52-1.96,4.75-3.27,7.21-2.92h.02Z"/>
            <g class="cls-12">
              <path class="cls-1" d="M12.51,28.86c.43.07.56.39.29.73-.26.35-.83.57-1.26.51s-.56-.39-.29-.73c.26-.35.83-.57,1.26-.51Z"/>
            </g>
            <g class="cls-12">
              <path class="cls-1" d="M15.54,30.03c.72.1.95.65.5,1.23-.45.57-1.39.96-2.13.86-.72-.1-.95-.65-.5-1.23s1.39-.96,2.13-.86Z"/>
            </g>
            <g class="cls-12">
              <path class="cls-1" d="M10.89,31.85c.43.07.56.39.29.73-.26.35-.83.57-1.26.51s-.56-.39-.29-.73.83-.57,1.26-.51Z"/>
            </g>
          </g>
        </g>
      </g>
    </g>
  </g>
</svg>